<mxfile host="drawio-plugin" modified="2021-12-17T02:26:22.633Z" agent="5.0 (Macintosh; Intel Mac OS X 10_15_4) AppleWebKit/537.36 (KHTML, like Gecko) Chrome/89.0.4389.114 Safari/537.36" etag="H2OaQulzEhm2367vYN6t" version="14.7.4" type="embed"><diagram id="GI2QVOApyVzhnFM3SFin" name="Page-1"><mxGraphModel dx="1465" dy="813" grid="1" gridSize="10" guides="1" tooltips="1" connect="1" arrows="1" fold="1" page="1" pageScale="1" pageWidth="1169" pageHeight="827" math="0" shadow="0"><root><mxCell id="0"/><mxCell id="1" parent="0"/><mxCell id="26" value="&lt;b&gt;Google &lt;/b&gt;Cloud Platform" style="fillColor=#F6F6F6;strokeColor=none;shadow=0;gradientColor=none;fontSize=14;align=left;spacing=10;fontColor=#717171;9E9E9E;verticalAlign=top;spacingTop=-4;fontStyle=0;spacingLeft=40;html=1;" parent="1" vertex="1"><mxGeometry x="150" y="40" width="610" height="280" as="geometry"/></mxCell><mxCell id="27" value="" style="shape=mxgraph.gcp2.google_cloud_platform;fillColor=#F6F6F6;strokeColor=none;shadow=0;gradientColor=none;" parent="26" vertex="1"><mxGeometry width="23" height="20" relative="1" as="geometry"><mxPoint x="20" y="10" as="offset"/></mxGeometry></mxCell><mxCell id="45" value="header env: env1" style="text;html=1;strokeColor=none;fillColor=none;align=center;verticalAlign=middle;whiteSpace=wrap;rounded=0;" vertex="1" parent="26"><mxGeometry x="220" y="90" width="100" height="20" as="geometry"/></mxCell><mxCell id="15" value="Desktop" style="strokeColor=#dddddd;shadow=1;strokeWidth=1;rounded=1;absoluteArcSize=1;arcSize=2;labelPosition=center;verticalLabelPosition=middle;align=center;verticalAlign=bottom;spacingLeft=0;fontColor=#999999;fontSize=12;whiteSpace=wrap;spacingBottom=2;" parent="1" vertex="1"><mxGeometry x="30" y="150" width="70" height="85" as="geometry"/></mxCell><mxCell id="16" value="" style="dashed=0;connectable=0;html=1;fillColor=#757575;strokeColor=none;shape=mxgraph.gcp2.desktop;part=1;" parent="15" vertex="1"><mxGeometry x="0.5" width="50" height="45" relative="1" as="geometry"><mxPoint x="-25" y="12.5" as="offset"/></mxGeometry></mxCell><mxCell id="25" value="" style="edgeStyle=orthogonalEdgeStyle;fontSize=12;html=1;endArrow=blockThin;endFill=1;rounded=0;strokeWidth=2;endSize=4;startSize=4;dashed=0;strokeColor=#4284F3;exitX=1;exitY=0.5;exitDx=0;exitDy=0;entryX=0;entryY=0.5;entryDx=0;entryDy=0;" parent="1" source="15" target="23" edge="1"><mxGeometry width="100" relative="1" as="geometry"><mxPoint x="540" y="400" as="sourcePoint"/><mxPoint x="640" y="400" as="targetPoint"/></mxGeometry></mxCell><mxCell id="23" value="" style="strokeColor=#dddddd;shadow=1;strokeWidth=1;rounded=1;absoluteArcSize=1;arcSize=2;" parent="1" vertex="1"><mxGeometry x="200" y="162.5" width="180" height="60" as="geometry"/></mxCell><mxCell id="24" value="&lt;font color=&quot;#000000&quot;&gt;Load Balancer&lt;/font&gt;&lt;br&gt;Cloud Load Balancing" style="dashed=0;connectable=0;html=1;fillColor=#5184F3;strokeColor=none;shape=mxgraph.gcp2.hexIcon;prIcon=cloud_load_balancing;part=1;labelPosition=right;verticalLabelPosition=middle;align=left;verticalAlign=middle;spacingLeft=5;fontColor=#999999;fontSize=12;" parent="23" vertex="1"><mxGeometry y="0.5" width="44" height="39" relative="1" as="geometry"><mxPoint x="5" y="-19.5" as="offset"/></mxGeometry></mxCell><mxCell id="42" value="" style="group" parent="1" vertex="1" connectable="0"><mxGeometry x="470" y="70" width="250" height="210" as="geometry"/></mxCell><mxCell id="21" value="Kubernetes cluster" style="points=[[0,0,0],[0.25,0,0],[0.5,0,0],[0.75,0,0],[1,0,0],[1,0.25,0],[1,0.5,0],[1,0.75,0],[1,1,0],[0.75,1,0],[0.5,1,0],[0.25,1,0],[0,1,0],[0,0.75,0],[0,0.5,0],[0,0.25,0]];rounded=1;absoluteArcSize=1;arcSize=2;html=1;strokeColor=none;gradientColor=none;shadow=0;dashed=0;fontSize=12;fontColor=#9E9E9E;align=left;verticalAlign=top;spacing=10;spacingTop=-4;fillColor=#FCE4EC;" parent="42" vertex="1"><mxGeometry width="250" height="210" as="geometry"/></mxCell><mxCell id="22" value="pod&lt;br&gt;&lt;font color=&quot;#000000&quot;&gt;app ENV=env1&lt;/font&gt;" style="points=[[0,0,0],[0.25,0,0],[0.5,0,0],[0.75,0,0],[1,0,0],[1,0.25,0],[1,0.5,0],[1,0.75,0],[1,1,0],[0.75,1,0],[0.5,1,0],[0.25,1,0],[0,1,0],[0,0.75,0],[0,0.5,0],[0,0.25,0]];rounded=1;absoluteArcSize=1;arcSize=2;html=1;strokeColor=none;gradientColor=none;shadow=0;dashed=0;fontSize=12;fontColor=#9E9E9E;align=left;verticalAlign=top;spacing=10;spacingTop=-4;fillColor=#E8F5E9;" parent="21" vertex="1"><mxGeometry width="210" height="60" relative="1" as="geometry"><mxPoint x="10" y="50" as="offset"/></mxGeometry></mxCell><mxCell id="40" value="pod&lt;br&gt;&lt;font color=&quot;#000000&quot;&gt;app ENV=env2&lt;/font&gt;" style="points=[[0,0,0],[0.25,0,0],[0.5,0,0],[0.75,0,0],[1,0,0],[1,0.25,0],[1,0.5,0],[1,0.75,0],[1,1,0],[0.75,1,0],[0.5,1,0],[0.25,1,0],[0,1,0],[0,0.75,0],[0,0.5,0],[0,0.25,0]];rounded=1;absoluteArcSize=1;arcSize=2;html=1;strokeColor=none;gradientColor=none;shadow=0;dashed=0;fontSize=12;fontColor=#9E9E9E;align=left;verticalAlign=top;spacing=10;spacingTop=-4;fillColor=#E8F5E9;" parent="42" vertex="1"><mxGeometry x="10" y="130" width="210" height="60" as="geometry"/></mxCell><mxCell id="43" value="" style="edgeStyle=orthogonalEdgeStyle;fontSize=12;html=1;endArrow=blockThin;endFill=1;rounded=0;strokeWidth=2;endSize=4;startSize=4;dashed=0;strokeColor=#4284F3;exitX=1;exitY=0.25;exitDx=0;exitDy=0;entryX=0;entryY=0.5;entryDx=0;entryDy=0;entryPerimeter=0;" parent="1" source="23" target="22" edge="1"><mxGeometry width="100" relative="1" as="geometry"><mxPoint x="110" y="202.5" as="sourcePoint"/><mxPoint x="210" y="202.5" as="targetPoint"/></mxGeometry></mxCell><mxCell id="44" value="" style="edgeStyle=orthogonalEdgeStyle;fontSize=12;html=1;endArrow=blockThin;endFill=1;rounded=0;strokeWidth=2;endSize=4;startSize=4;dashed=0;strokeColor=#4284F3;exitX=1;exitY=0.75;exitDx=0;exitDy=0;entryX=0;entryY=0.5;entryDx=0;entryDy=0;entryPerimeter=0;" parent="1" source="23" target="40" edge="1"><mxGeometry width="100" relative="1" as="geometry"><mxPoint x="390" y="187.5" as="sourcePoint"/><mxPoint x="500" y="150" as="targetPoint"/></mxGeometry></mxCell><mxCell id="46" value="header env: env2" style="text;html=1;strokeColor=none;fillColor=none;align=center;verticalAlign=middle;whiteSpace=wrap;rounded=0;" vertex="1" parent="1"><mxGeometry x="370" y="230" width="100" height="20" as="geometry"/></mxCell></root></mxGraphModel></diagram></mxfile>